<mxfile host="app.diagrams.net" agent="Mozilla/5.0 (X11; Ubuntu; Linux x86_64; rv:134.0) Gecko/20100101 Firefox/134.0" version="26.0.10">
  <diagram name="Page-1" id="N17phzSXL9w7y8zX3gDE">
    <mxGraphModel dx="1987" dy="638" grid="1" gridSize="10" guides="1" tooltips="1" connect="1" arrows="1" fold="1" page="1" pageScale="1" pageWidth="850" pageHeight="1100" math="1" shadow="0">
      <root>
        <mxCell id="0" />
        <mxCell id="1" parent="0" />
        <mxCell id="dGh9uOD7rtoKU6u2wli6-2" value="$$\mathcal{L}(\Gamma_{1/2}) = \mathcal{L}_{\textrm{L200}} \cdot \mathcal{L}_{\textrm{aux}}$$" style="text;whiteSpace=wrap;align=center;verticalAlign=middle;" vertex="1" parent="1">
          <mxGeometry x="-80" y="40" width="160" height="50" as="geometry" />
        </mxCell>
        <mxCell id="dGh9uOD7rtoKU6u2wli6-6" value="" style="endArrow=none;html=1;rounded=0;fontColor=#07A9FF;strokeColor=#07A9FF;strokeWidth=2;" edge="1" parent="1">
          <mxGeometry width="50" height="50" relative="1" as="geometry">
            <mxPoint y="80" as="sourcePoint" />
            <mxPoint x="30" y="80" as="targetPoint" />
          </mxGeometry>
        </mxCell>
        <mxCell id="dGh9uOD7rtoKU6u2wli6-7" value="" style="endArrow=none;html=1;rounded=0;fontColor=#07A9FF;strokeColor=#1A2A5B;strokeWidth=2;" edge="1" parent="1">
          <mxGeometry width="50" height="50" relative="1" as="geometry">
            <mxPoint x="40" y="80" as="sourcePoint" />
            <mxPoint x="70" y="80" as="targetPoint" />
          </mxGeometry>
        </mxCell>
        <mxCell id="dGh9uOD7rtoKU6u2wli6-10" value="" style="endArrow=classic;html=1;rounded=0;exitX=0.5;exitY=1;exitDx=0;exitDy=0;entryX=0.5;entryY=0;entryDx=0;entryDy=0;" edge="1" parent="1" source="dGh9uOD7rtoKU6u2wli6-2" target="dGh9uOD7rtoKU6u2wli6-1">
          <mxGeometry width="50" height="50" relative="1" as="geometry">
            <mxPoint y="100" as="sourcePoint" />
            <mxPoint x="110" y="100" as="targetPoint" />
          </mxGeometry>
        </mxCell>
        <mxCell id="dGh9uOD7rtoKU6u2wli6-12" value="" style="group" vertex="1" connectable="0" parent="1">
          <mxGeometry x="-505" y="120" width="1010" height="90" as="geometry" />
        </mxCell>
        <mxCell id="dGh9uOD7rtoKU6u2wli6-1" value="$$\mathcal{L}(\Gamma_{1/2} | \vec{\nu}\,) = \prod_k \bigg[ \frac{(s_k + b_k)^{N_k} e^{-(s_k + b_k)}}{N_k!} \prod_{i=1}^{N_k} \frac{1}{s_k + b_k} \left( \frac{b_k}{\Delta E} + \frac{s_k}{\sqrt{2 \pi \sigma_k^2}} e^{-\frac{(E_i - Q_{\beta\beta} - \Delta_k)^2}{2 \sigma_k^2}} \right) \bigg] &#xa;&#xa;\times \prod_k \bigg[ \frac{1}{\sqrt{2 \pi \delta_{\Delta_k}^2}} e^{-\frac{(\Delta_k - \tilde{\Delta}_k)^2}{2 \delta_{\Delta_k}^2}}   &#xa; \frac{1}{\sqrt{2 \pi \delta_{\sigma_k}^2}} e^{-\frac{(\sigma_k - &#xa;\tilde{\sigma}_k)^2}{2 \delta_{\sigma_k}^2}} \bigg] \times \frac{1}{\sqrt{2 &#xa;\pi \delta_{\alpha} }} e^{-\frac{(\alpha - \tilde{\alpha})^2}{2 &#xa;\delta_{\alpha}}}&#xa;   $$" style="text;whiteSpace=wrap;align=center;verticalAlign=middle;" vertex="1" parent="dGh9uOD7rtoKU6u2wli6-12">
          <mxGeometry width="1010" height="90" as="geometry" />
        </mxCell>
        <mxCell id="dGh9uOD7rtoKU6u2wli6-4" value="" style="endArrow=none;html=1;rounded=0;entryX=0.607;entryY=0.786;entryDx=0;entryDy=0;entryPerimeter=0;fontColor=#07A9FF;strokeColor=#07A9FF;strokeWidth=2;" edge="1" parent="dGh9uOD7rtoKU6u2wli6-12">
          <mxGeometry width="50" height="50" relative="1" as="geometry">
            <mxPoint x="135" y="80" as="sourcePoint" />
            <mxPoint x="564.9200000000001" y="80.03999999999996" as="targetPoint" />
          </mxGeometry>
        </mxCell>
        <mxCell id="dGh9uOD7rtoKU6u2wli6-8" value="" style="endArrow=none;html=1;rounded=0;fontColor=#07A9FF;strokeColor=#1A2A5B;strokeWidth=2;" edge="1" parent="dGh9uOD7rtoKU6u2wli6-12">
          <mxGeometry width="50" height="50" relative="1" as="geometry">
            <mxPoint x="585" y="80" as="sourcePoint" />
            <mxPoint x="955" y="80" as="targetPoint" />
          </mxGeometry>
        </mxCell>
      </root>
    </mxGraphModel>
  </diagram>
</mxfile>
